<svg xmlns="http://www.w3.org/2000/svg" viewBox="0 0 200 200">
  <defs>
    <linearGradient id="grad1" x1="0%" y1="0%" x2="100%" y2="100%">
      <stop offset="0%" style="stop-color:#ff6b6b;stop-opacity:1" />
      <stop offset="100%" style="stop-color:#ff5252;stop-opacity:1" />
    </linearGradient>
    <linearGradient id="grad2" x1="0%" y1="0%" x2="100%" y2="100%">
      <stop offset="0%" style="stop-color:#4ecdc4;stop-opacity:1" />
      <stop offset="100%" style="stop-color:#26a69a;stop-opacity:1" />
    </linearGradient>
    <linearGradient id="grad3" x1="0%" y1="0%" x2="100%" y2="100%">
      <stop offset="0%" style="stop-color:#45b7d1;stop-opacity:1" />
      <stop offset="100%" style="stop-color:#2196f3;stop-opacity:1" />
    </linearGradient>
    <linearGradient id="grad4" x1="0%" y1="0%" x2="100%" y2="100%">
      <stop offset="0%" style="stop-color:#f9ca24;stop-opacity:1" />
      <stop offset="100%" style="stop-color:#f0932b;stop-opacity:1" />
    </linearGradient>
    <linearGradient id="grad5" x1="0%" y1="0%" x2="100%" y2="100%">
      <stop offset="0%" style="stop-color:#6c5ce7;stop-opacity:1" />
      <stop offset="100%" style="stop-color:#5f3dc4;stop-opacity:1" />
    </linearGradient>
    <linearGradient id="grad6" x1="0%" y1="0%" x2="100%" y2="100%">
      <stop offset="0%" style="stop-color:#a29bfe;stop-opacity:1" />
      <stop offset="100%" style="stop-color:#6c5ce7;stop-opacity:1" />
    </linearGradient>
    <linearGradient id="grad7" x1="0%" y1="0%" x2="100%" y2="100%">
      <stop offset="0%" style="stop-color:#00b894;stop-opacity:1" />
      <stop offset="100%" style="stop-color:#00a085;stop-opacity:1" />
    </linearGradient>
  </defs>

  <!-- Background circle -->
  <circle cx="100" cy="100" r="95" fill="#2d3436" stroke="#636e72" stroke-width="2"/>

  <!-- T-piece (top) -->
  <rect x="70" y="40" width="20" height="20" fill="url(#grad1)" stroke="#fff" stroke-width="1" rx="2"/>
  <rect x="90" y="40" width="20" height="20" fill="url(#grad1)" stroke="#fff" stroke-width="1" rx="2"/>
  <rect x="110" y="40" width="20" height="20" fill="url(#grad1)" stroke="#fff" stroke-width="1" rx="2"/>
  <rect x="90" y="60" width="20" height="20" fill="url(#grad1)" stroke="#fff" stroke-width="1" rx="2"/>

  <!-- L-piece (left) -->
  <rect x="30" y="80" width="20" height="20" fill="url(#grad2)" stroke="#fff" stroke-width="1" rx="2"/>
  <rect x="30" y="100" width="20" height="20" fill="url(#grad2)" stroke="#fff" stroke-width="1" rx="2"/>
  <rect x="30" y="120" width="20" height="20" fill="url(#grad2)" stroke="#fff" stroke-width="1" rx="2"/>
  <rect x="50" y="120" width="20" height="20" fill="url(#grad2)" stroke="#fff" stroke-width="1" rx="2"/>

  <!-- I-piece (center vertical) -->
  <rect x="90" y="90" width="20" height="20" fill="url(#grad3)" stroke="#fff" stroke-width="1" rx="2"/>
  <rect x="90" y="110" width="20" height="20" fill="url(#grad3)" stroke="#fff" stroke-width="1" rx="2"/>
  <rect x="90" y="130" width="20" height="20" fill="url(#grad3)" stroke="#fff" stroke-width="1" rx="2"/>
  <rect x="90" y="150" width="20" height="20" fill="url(#grad3)" stroke="#fff" stroke-width="1" rx="2"/>

  <!-- S-piece (right) -->
  <rect x="130" y="80" width="20" height="20" fill="url(#grad4)" stroke="#fff" stroke-width="1" rx="2"/>
  <rect x="150" y="80" width="20" height="20" fill="url(#grad4)" stroke="#fff" stroke-width="1" rx="2"/>
  <rect x="120" y="100" width="20" height="20" fill="url(#grad4)" stroke="#fff" stroke-width="1" rx="2"/>
  <rect x="130" y="100" width="20" height="20" fill="url(#grad4)" stroke="#fff" stroke-width="1" rx="2"/>

  <!-- Z-piece (bottom left) -->
  <rect x="50" y="140" width="20" height="20" fill="url(#grad5)" stroke="#fff" stroke-width="1" rx="2"/>
  <rect x="70" y="140" width="20" height="20" fill="url(#grad5)" stroke="#fff" stroke-width="1" rx="2"/>
  <rect x="60" y="160" width="20" height="20" fill="url(#grad5)" stroke="#fff" stroke-width="1" rx="2"/>
  <rect x="80" y="160" width="20" height="20" fill="url(#grad5)" stroke="#fff" stroke-width="1" rx="2"/>

  <!-- O-piece (bottom right) -->
  <rect x="130" y="140" width="20" height="20" fill="url(#grad6)" stroke="#fff" stroke-width="1" rx="2"/>
  <rect x="150" y="140" width="20" height="20" fill="url(#grad6)" stroke="#fff" stroke-width="1" rx="2"/>
  <rect x="130" y="160" width="20" height="20" fill="url(#grad6)" stroke="#fff" stroke-width="1" rx="2"/>
  <rect x="150" y="160" width="20" height="20" fill="url(#grad6)" stroke="#fff" stroke-width="1" rx="2"/>

  <!-- J-piece (additional accent) -->
  <rect x="50" y="60" width="20" height="20" fill="url(#grad7)" stroke="#fff" stroke-width="1" rx="2"/>
  <rect x="50" y="80" width="20" height="20" fill="url(#grad7)" stroke="#fff" stroke-width="1" rx="2"/>
  <rect x="70" y="80" width="20" height="20" fill="url(#grad7)" stroke="#fff" stroke-width="1" rx="2"/>
  <rect x="90" y="80" width="20" height="20" fill="url(#grad7)" stroke="#fff" stroke-width="1" rx="2"/>
</svg>
